<svg width="22" height="24" viewBox="0 0 22 24" fill="none" xmlns="http://www.w3.org/2000/svg">
<path d="M12.2236 0.499678C11.5189 -0.166559 10.4166 -0.166559 9.71194 0.499678L0.858191 8.87053C0.310388 9.38846 0 10.1091 0 10.863V21.0433C0 22.5576 1.2276 23.7852 2.74194 23.7852H5.48388C6.99822 23.7852 8.22582 22.5576 8.22582 21.0433V16.4734C8.22582 15.9687 8.63503 15.5595 9.1398 15.5595H12.7957C13.3005 15.5595 13.7097 15.9687 13.7097 16.4734V21.0433C13.7097 22.5576 14.9374 23.7852 16.4516 23.7852H19.1936C20.7079 23.7852 21.9355 22.5576 21.9355 21.0433V10.863C21.9355 10.1091 21.6251 9.38846 21.0773 8.87053L12.2236 0.499678Z" fill="#EFEFEF"/>
</svg>
