<svg width="20" height="24" viewBox="0 0 20 24" fill="none" xmlns="http://www.w3.org/2000/svg">
<path d="M16.2816 11.8926C18.2521 11.8926 19.8494 13.49 19.8494 15.4604C19.8494 18.115 18.7578 20.2419 16.9663 21.6798C15.2032 23.095 12.8401 23.7852 10.3353 23.7852C7.83055 23.7852 5.46749 23.095 3.70436 21.6798C1.9129 20.2419 0.821228 18.115 0.821228 15.4604C0.821228 13.606 2.23616 12.0818 4.04537 11.909L4.38897 11.8926H16.2816ZM10.3353 0C12.9626 0 15.0924 2.1298 15.0924 4.75705C15.0924 7.3843 12.9626 9.5141 10.3353 9.5141C7.70808 9.5141 5.57828 7.3843 5.57828 4.75705C5.57828 2.1298 7.70808 0 10.3353 0Z" fill="#EFEFEF"/>
</svg>
