<svg width="26" height="24" viewBox="0 0 26 24" fill="none" xmlns="http://www.w3.org/2000/svg">
<path d="M23.5935 8.38994C21.3129 8.38994 20.3806 6.77719 21.5145 4.79906C22.1697 3.65249 21.7791 2.19094 20.6326 1.53576L18.4528 0.288406C17.4575 -0.303774 16.1723 0.0490141 15.5801 1.04438L15.4415 1.28377C14.3076 3.26191 12.4428 3.26191 11.2963 1.28377L11.1577 1.04438C10.5907 0.0490141 9.30553 -0.303774 8.31016 0.288406L6.13043 1.53576C4.98387 2.19094 4.59328 3.66509 5.24846 4.81166C6.39502 6.77719 5.46265 8.38994 3.18213 8.38994C1.87177 8.38994 0.788208 9.4609 0.788208 10.7839V13.0014C0.788208 14.3117 1.85917 15.3953 3.18213 15.3953C5.46265 15.3953 6.39502 17.0081 5.24846 18.9862C4.59328 20.1327 4.98387 21.5943 6.13043 22.2495L8.31016 23.4968C9.30553 24.089 10.5907 23.7362 11.1829 22.7409L11.3215 22.5015C12.4554 20.5233 14.3202 20.5233 15.4667 22.5015L15.6053 22.7409C16.1975 23.7362 17.4827 24.089 18.478 23.4968L20.6578 22.2495C21.8043 21.5943 22.1949 20.1201 21.5397 18.9862C20.3932 17.0081 21.3255 15.3953 23.6061 15.3953C24.9164 15.3953 26 14.3243 26 13.0014V10.7839C25.9874 9.4735 24.9164 8.38994 23.5935 8.38994ZM13.3878 15.9875C11.1325 15.9875 9.29293 14.1479 9.29293 11.8926C9.29293 9.6373 11.1325 7.79776 13.3878 7.79776C15.6431 7.79776 17.4827 9.6373 17.4827 11.8926C17.4827 14.1479 15.6431 15.9875 13.3878 15.9875Z" fill="#EFEFEF"/>
</svg>
