<svg width="16" height="16" viewBox="0 0 16 16" fill="none" xmlns="http://www.w3.org/2000/svg">
<path d="M15.9618 11.818C15.6973 13.9494 13.9505 15.6962 11.8191 15.9607C10.529 16.1209 9.32703 15.7683 8.38952 15.0792C7.85265 14.6866 7.98086 13.8533 8.62189 13.6609C11.0338 12.9318 12.9329 11.0247 13.67 8.61279C13.8624 7.97977 14.6957 7.85156 15.0883 8.38041C15.7694 9.32594 16.122 10.5279 15.9618 11.818Z" fill="white"/>
<path d="M6.40234 0C2.86863 0 0 2.86863 0 6.40234C0 9.93605 2.86863 12.8047 6.40234 12.8047C9.93605 12.8047 12.8047 9.93605 12.8047 6.40234C12.7967 2.86863 9.93605 0 6.40234 0ZM5.64913 5.50489L7.58024 6.17798C8.27737 6.42638 8.61391 6.91517 8.61391 7.66839C8.61391 8.53378 7.9248 9.24694 7.08344 9.24694H7.01133V9.287C7.01133 9.61553 6.73889 9.88797 6.41035 9.88797C6.08182 9.88797 5.80938 9.61553 5.80938 9.287V9.23892C4.91995 9.19886 4.2068 8.45366 4.2068 7.52415C4.2068 7.19562 4.47924 6.92318 4.80777 6.92318C5.1363 6.92318 5.40874 7.19562 5.40874 7.52415C5.40874 7.81262 5.61707 8.045 5.87349 8.045H7.07543C7.25973 8.045 7.40396 7.87672 7.40396 7.66839C7.40396 7.38793 7.35588 7.37191 7.17158 7.3078L5.24046 6.63472C4.55135 6.39433 4.2068 5.90554 4.2068 5.14431C4.2068 4.27891 4.89591 3.56576 5.73727 3.56576H5.80938V3.53371C5.80938 3.20518 6.08182 2.93274 6.41035 2.93274C6.73889 2.93274 7.01133 3.20518 7.01133 3.53371V3.58179C7.90076 3.62185 8.61391 4.36705 8.61391 5.29656C8.61391 5.62509 8.34147 5.89753 8.01294 5.89753C7.68441 5.89753 7.41197 5.62509 7.41197 5.29656C7.41197 5.00809 7.20364 4.77571 6.94722 4.77571H5.74528C5.56098 4.77571 5.41675 4.94399 5.41675 5.15232C5.40874 5.42476 5.45681 5.44079 5.64913 5.50489Z" fill="white"/>
</svg>
