<svg width="250" height="411" viewBox="0 0 250 411" fill="none" xmlns="http://www.w3.org/2000/svg">
<path fill-rule="evenodd" clip-rule="evenodd" d="M141.47 17.5961C132.715 7.7109 117.285 7.7109 108.53 17.5961L88.9863 39.6639C86.1939 42.8168 84.5188 46.3738 83.8102 50H66C29.5492 50 0 79.5492 0 116V345C0 381.451 29.5492 411 66 411H184C220.451 411 250 381.451 250 345V116C250 79.5492 220.451 50 184 50H166.19C165.481 46.3738 163.806 42.8168 161.014 39.6638L141.47 17.5961Z" fill="#D9E3FF" fill-opacity="0.4"/>
<rect x="92" width="66" height="26" rx="8" fill="#6F86E5"/>
<path d="M100 5L100 21" stroke="white" stroke-linecap="round"/>
<path d="M107 5L107 21" stroke="white" stroke-linecap="round"/>
<path d="M114 5L114 21" stroke="white" stroke-linecap="round"/>
<path d="M121 5L121 21" stroke="white" stroke-linecap="round"/>
<path d="M129 5L129 21" stroke="white" stroke-linecap="round"/>
<path d="M136 5L136 21" stroke="white" stroke-linecap="round"/>
<path d="M143 5L143 21" stroke="white" stroke-linecap="round"/>
<path d="M150 5L150 21" stroke="white" stroke-linecap="round"/>
</svg>
